<?xml version="1.0" encoding="utf-8"?>
<!-- Generator: Adobe Illustrator 19.1.0, SVG Export Plug-In . SVG Version: 6.00 Build 0)  -->
<svg version="1.1" id="Layer_1" xmlns="http://www.w3.org/2000/svg" xmlns:xlink="http://www.w3.org/1999/xlink" x="0px" y="0px"
	 viewBox="-31 401.6 935.7 199.4" style="enable-background:new -31 401.6 935.7 199.4;" xml:space="preserve">
<style type="text/css">
	.st0{fill:#555555;}
</style>
<g>
	<rect x="570.9" y="402.6" class="st0" width="9.5" height="88.4"/>
	<polygon class="st0" points="656,482.7 614.3,482.7 614.3,402.6 604.9,402.6 604.9,491 656,491 	"/>
	<path class="st0" d="M715.8,452.9l-41-51.3h-1.3V491h9.1v-58.3c0-4-0.5-10.1-0.5-10.1s3.5,5.7,6.4,9.2l26.4,33.8h1.6l26.8-33.8
		c2.9-3.5,6.2-9.2,6.2-9.2s-0.5,6-0.5,10.1v58.4h9.1v-89.5h-1.4L715.8,452.9z"/>
	<path class="st0" d="M636.4,511.7L599.7,601h9.2l5.8-14.8h44.7l6,14.8h9.9L638,511.7H636.4z M656.2,578.1h-38.1l15.6-39.3
		c1.7-4.2,3.5-10.5,3.5-10.5s1.7,6.4,3.4,10.5L656.2,578.1z"/>
	<path class="st0" d="M751.2,512.6h-10.5l-33.4,43c-1.7,2.2-4.4,7.2-6.4,10.9c0.3-2.9,0.8-7.9,0.8-12.1v-41.8h-9.4V601h9.4v-26
		l10.7-12.9l30.8,38.9h11.6l-36.3-45.8L751.2,512.6z"/>
	<polygon class="st0" points="780.6,570.6 820.2,570.6 820.2,562.4 780.6,562.4 780.6,520.9 825,520.9 825,512.6 771.2,512.6 
		771.2,601 826.9,601 826.9,592.7 780.6,592.7 	"/>
	<path class="st0" d="M884.7,573.9c12.2-4.9,18.5-15.3,18.5-28.6c0-19.1-12.5-32.6-36.7-32.6h-19.9v88.4h9.4v-23.5h10.5
		c3.1,0,6.4-0.3,9.4-0.8l17,24.2H904L884.7,573.9z M866,569.4h-10v-48.5h10c19.9,0,27.4,10.4,27.4,24.3
		C893.4,559.2,886,569.4,866,569.4z"/>
	<path class="st0" d="M503.1,556.8c0-21.1-15.1-36.8-35.8-36.8c-20.5,0-35.6,15.7-35.6,36.8c0,21.1,15.1,36.8,35.6,36.8
		C488,593.6,503.1,577.9,503.1,556.8z"/>
	<path class="st0" d="M248.7,531.3c0,0,0.8,6.2,0.8,10V601h57.3l-52-61.5C252.4,536.5,248.7,531.3,248.7,531.3z"/>
	<path class="st0" d="M185.5,528.4c0,0-1.8,6.4-3.5,10.5l-15.6,39.3h38.1l-15.6-39.3C187.2,534.7,185.5,528.4,185.5,528.4z"/>
	<polygon class="st0" points="163.2,586.2 157.3,601 213.9,601 207.9,586.2 	"/>
	<rect x="214.9" y="402.6" class="st0" width="47.3" height="49.8"/>
	<path class="st0" d="M15,435.3c0-13.9-7.5-24.3-27.4-24.3h-10v48.5h10C7.6,459.4,15,449.2,15,435.3z"/>
	<path class="st0" d="M306.8,468.1h38.1l-15.6-39.3c-1.7-4.2-3.4-10.5-3.4-10.5s-1.8,6.4-3.5,10.5L306.8,468.1z"/>
	<path class="st0" d="M176.5,435.9c0-14.6-7.4-25-27.3-25H139v49.9h10.1C169,460.9,176.5,450.5,176.5,435.9z"/>
	<path class="st0" d="M93.4,574.8c0-10.4-6.1-17.9-19.6-17.9H51.1v35.9h23.1C87.8,592.7,93.4,585,93.4,574.8z"/>
	<path class="st0" d="M86.7,534.9c0-8.1-4.3-13.9-15.6-13.9h-20v27.8h21.3C82.7,548.8,86.7,542.9,86.7,534.9z"/>
	<path class="st0" d="M55.4,468.1h38.1l-15.6-39.3c-1.7-4.2-3.4-10.5-3.4-10.5s-1.8,6.4-3.5,10.5L55.4,468.1z"/>
	<path class="st0" d="M479.5,601h25.1l-0.1-16.3C497.9,594.2,489.5,599.7,479.5,601z"/>
	<path class="st0" d="M540.6,563l-36.1-45.3l0.1-26.6v-30h42.8v-8.6h-42.8v-41.6h46.8v-8.3h-46.8h-6.3h-32.4v80.1h32.4v8.3h-41.7
		v-88.4H435v8.3h-44.5v41.5h39.7v8.2h-39.7v22.1h46.3v8.3h-55.6v-88.4h-54l37.1,88.4h-9.9l-6-14.8h-44.7l-5.9,14.8h-9.2l36.2-88.4
		h-53.2V491h-9.4v-30h-47.3v30h-9.4v-88.4h-55.9c24.2,0,36.5,13.4,36.5,33.3c0,19.5-12.4,33.2-36.5,33.2H139v22h-9.4v-88.5h-54
		l37.1,88.4h-9.9l-6-14.8H52.2L46.3,491h-9.2l36.3-88.4h-85.3c24.2,0,36.7,13.5,36.7,32.6c0,13.3-6.2,23.7-18.5,28.6L25.5,491h-11
		l-17-24.2c-3,0.5-6.2,0.8-9.4,0.8h-10.5V524v77h64.2v-88.4h30c16.5,0,24.3,9.8,24.3,21.7c0,8.7-3.9,15.1-11.4,17.6
		c11.4,2.7,18.2,11.4,18.2,23.1c0,14.7-9.1,26-28,26h46.4v-88.4h9.5V601h17.3l36.7-89.3h1.6l37.4,89.3h16.9v-89.3h1.6l52.8,62.4
		c2.5,3,6.1,8.2,6.1,8.2s-0.6-6.2-0.6-10v-59.7h8.7V601h54.4c-20.2-4.2-35.3-21.2-35.3-44.2c0-26.7,20.3-45.2,45.4-45.2
		c15.6,0,27.6,5.9,35.1,17.2l-7.2,5.2c-5.7-8.5-15.2-13.9-28-13.9c-20.7,0-35.6,15.7-35.6,36.8c0,21.1,15,36.8,35.6,36.8
		c12.9,0,22.8-5.6,29.1-14.8l7.3,5.1c-6,8.8-15,14.9-26.1,17.2h71.5c-8-2.2-15.2-6.5-20.8-12.3c-0.1-0.1-0.1-0.1-0.2-0.2
		c-0.4-0.4-0.7-0.7-1-1.1c-0.4-0.5-0.9-1-1.3-1.5c-0.4-0.5-0.8-1-1.2-1.5c-5.8-7.7-9.3-17.2-9.3-27.6c0-9.7,3-18.6,8.1-26
		c0,0,0-0.1,0.1-0.1c0.3-0.5,0.7-1,1.1-1.5c0.3-0.4,0.7-0.9,1-1.3c0.1-0.1,0.2-0.2,0.2-0.3c0.4-0.4,0.7-0.9,1.1-1.3
		c0.1-0.1,0.2-0.3,0.3-0.4c0.2-0.2,0.5-0.5,0.7-0.7c8.3-8.7,20.1-14.2,33.1-14.2c13.7,0,26,6,34.4,15.5c0.1,0.1,0.2,0.2,0.2,0.3
		c0.5,0.6,1,1.2,1.4,1.7c0.1,0.1,0.1,0.2,0.2,0.3c0.5,0.7,0.9,1.2,1.2,1.6c1.7,2.6,6.4,9.1,8.3,11.3l26.4,33.8h1.6l26.8-33.8
		c2.9-3.5,6.2-9.2,6.2-9.2s-0.4,6.1-0.4,10.1v58.4h9.1v-89.6h-1.4L540.6,563z"/>
</g>
</svg>
